<svg xmlns="http://www.w3.org/2000/svg" width="51.805" height="55.565" viewBox="0 0 51.805 55.565"><g transform="translate(-110.194 -33.18)"><g transform="translate(110.194 33.18)"><path d="M1907.76,736.094c0,.327-.375.653-.378.976,0,.118,0,.234,0,.351,0,.205,0,.411-.008.614,0,.14-.006.278-.009.416,0,.179-.007.359-.012.537,0,.149-.009.3-.014.445-.005.166-.01.333-.015.5s-.012.306-.018.459-.012.315-.02.472-.015.31-.022.465-.015.3-.023.455-.018.314-.027.471-.017.293-.026.438-.021.318-.032.476c-.01.141-.019.281-.029.422-.012.161-.024.321-.036.481-.011.135-.021.271-.032.405-.013.162-.028.324-.042.485-.011.13-.022.261-.034.39-.015.164-.031.327-.046.49-.012.125-.024.25-.037.375-.017.165-.034.329-.051.493-.013.12-.026.241-.039.361-.018.166-.037.331-.056.5q-.02.173-.041.345c-.02.168-.041.334-.062.5q-.021.165-.042.331-.033.252-.067.5l-.043.317c-.024.169-.048.338-.073.506-.014.1-.03.2-.044.3-.026.171-.052.34-.078.509-.015.1-.03.193-.045.289-.027.172-.055.343-.083.513l-.046.274c-.03.173-.06.346-.09.518l-.046.259q-.047.262-.1.522l-.046.244c-.034.176-.068.353-.1.528-.015.076-.03.151-.045.226q-.054.268-.109.533l-.044.212q-.057.27-.115.538c-.014.065-.028.13-.043.195q-.06.274-.122.545c-.014.059-.027.119-.041.177q-.064.277-.129.552c-.013.053-.026.1-.038.158q-.068.283-.138.562l-.034.136q-.073.288-.146.573l-.03.113q-.077.295-.156.586l-.025.09q-.082.3-.166.6l-.018.063q-.088.311-.177.617l-.009.031q-.192.654-.393,1.29h0c-5.074,16.076-14.149,23.632-18.372,26.407a18.77,18.77,0,0,1-2.277,1.319s-9.783-4.429-16.928-18.532l7.155.559a33.326,33.326,0,0,0,9.773,10.407c4.958-3.024,10.222-9.63,12.544-15.349,6.107-.7,7.743-7.632,9.665-15.62a77.546,77.546,0,0,0,1.481-8.21c.329-2.582.882-4.915.956-6.713" transform="translate(-1857.212 -733.987)" fill="#f9fafb"/><path d="M1883.531,744.448a87.62,87.62,0,0,0,2.2-15.927l-8.414,1.27c-.016.408-.04.832-.062,1.264-.323,6.117-1.119,14.064-2.7,19.654-.75,2.656-1.678,4.778-2.813,5.92a2.122,2.122,0,0,1-2.81.161c-.027-.023-.053-.046-.076-.069-3.952-3.748-5.163-16.686-5.416-25.659h-7.216c-.253,8.973-1.468,21.912-5.42,25.659a.726.726,0,0,1-.076.069,2.118,2.118,0,0,1-2.807-.161c-3.7-3.718-5.183-17.818-5.581-26.837l-8.414-1.27c.392,9.585,3.6,33.451,15.482,33.451,0,0,6.858.25,10.4-10.3h0c.006.016.01.033.016.049a.263.263,0,0,0,.017-.049h.007c3.541,10.553,10.4,10.3,10.4,10.3a8.553,8.553,0,0,0,.971-.059h0c6.518-.744,10.256-8.942,12.307-17.466" transform="translate(-1833.927 -728.521)" fill="#ffc900"/></g></g></svg>